<svg xmlns="http://www.w3.org/2000/svg" viewBox="0 0 67.32 107.28" fill="currentColor">
  <path
    d="M67.32 0v3.06c-9.12 4.08-16.38 9.18-21.78 15.3-5.4 6.12-9.36 13.44-11.88 21.96-2.52-8.52-6.48-15.84-11.88-21.96C16.38 12.24 9.12 7.14 0 3.06V0c9.12 4.2 16.35 8.88 21.69 14.04 5.34 5.16 9.33 11.34 11.97 18.54 2.76-7.2 6.78-13.38 12.06-18.54C51 8.88 58.2 4.2 67.32 0Zm0 66.96v3.06c-9.12 4.08-16.38 9.18-21.78 15.3-5.4 6.12-9.36 13.44-11.88 21.96-2.52-8.52-6.48-15.84-11.88-21.96C16.38 79.2 9.12 74.1 0 70.02v-3.06c11.04 5.16 22.26 7.74 33.66 7.74 11.4 0 22.62-2.58 33.66-7.74ZM35.1 49.86V76.5h-2.88V49.86h2.88ZM67.32 16.2v3.06c-9.12 4.08-16.38 9.18-21.78 15.3-5.4 6.12-9.36 13.44-11.88 21.96-2.52-8.52-6.48-15.84-11.88-21.96C16.38 28.44 9.12 23.34 0 19.26V16.2c9.12 4.2 16.35 8.88 21.69 14.04 5.34 5.16 9.33 11.34 11.97 18.54 2.76-7.2 6.78-13.38 12.06-18.54C51 25.08 58.2 20.4 67.32 16.2Z" />
</svg>
