<svg xmlns="http://www.w3.org/2000/svg" viewBox="0 0 253 61" fill="currentColor">
  <path
    d="M28.298 12.176c0-1.088-.021-2.165-.064-3.232l-2.336-.256v-1.44h14.4l.256 4.736h-2.208l-.544-3.104h-5.568l-.064 3.168v2.848h3.52l.384-2.208h1.6v6.016h-1.6l-.352-2.176H32.17v3.392l.064 3.168h6.144l.544-3.104h2.208l-.224 4.704H25.898v-1.44l2.368-.256c.022-1.067.032-2.133.032-3.2v-7.616Zm2.816-7.648 1.632-1.632a107.95 107.95 0 0 1 1.632-1.536c.49-.49.896-.821 1.216-.992.32-.17.64-.256.96-.256.427 0 .779.139 1.056.416.278.256.416.565.416.928 0 .277-.117.587-.352.928-.213.32-.661.65-1.344.992l-4.48 2.176-.736-1.024Zm34.089 7.648a80.8 80.8 0 0 0-.064-3.232l-2.336-.256v-1.44h14.4l.256 4.736h-2.208l-.544-3.104H69.14l-.064 3.168v2.848h3.52l.384-2.208h1.6v6.016h-1.6l-.352-2.176h-3.552v3.392l.064 3.168h6.144l.544-3.104h2.208l-.224 4.704H62.803v-1.44l2.368-.256c.022-1.067.032-2.133.032-3.2v-7.616Zm7.808-7.648-.736 1.024a207.69 207.69 0 0 0-2.208-1.088c-.746-.363-1.493-.715-2.24-1.056-.682-.341-1.141-.683-1.376-1.024-.234-.341-.352-.65-.352-.928 0-.363.139-.672.416-.928.299-.277.65-.416 1.056-.416.32 0 .64.085.96.256.342.17.747.49 1.216.96a116.22 116.22 0 0 1 1.632 1.6 38.316 38.316 0 0 1 1.632 1.6Z" />
  <path
    d="M129.886 3.472v1.504l2.688.288c.043 1.365.064 2.73.064 4.096v9.472c0 1.365-.021 2.72-.064 4.064l-2.688.288v1.504h8.928c1.771 0 3.243-.17 4.416-.512 1.195-.341 2.134-.8 2.816-1.376.704-.576 1.206-1.205 1.504-1.888.32-.704.48-1.408.48-2.112 0-1.344-.49-2.496-1.472-3.456-.981-.96-2.602-1.579-4.864-1.856 1.92-.363 3.264-.992 4.032-1.888.768-.917 1.152-1.93 1.152-3.04 0-1.472-.586-2.688-1.76-3.648-1.173-.96-2.986-1.44-5.44-1.44h-9.792Zm6.848 10.976h1.44c1.899 0 3.296.363 4.192 1.088.896.704 1.344 1.792 1.344 3.264 0 2.816-1.802 4.224-5.408 4.224h-1.504l-.064-4.096v-4.48Zm.064-9.344h1.696c1.451 0 2.528.299 3.232.896.726.576 1.088 1.525 1.088 2.848 0 1.365-.384 2.379-1.152 3.04-.768.661-1.973.992-3.616.992h-1.312V9.168l.064-4.064Zm13.173 19.584v-1.44l2.432-.352 5.952-15.712h2.432l5.888 15.872 1.888.256v1.376h-8.32v-1.376l2.464-.352-1.248-3.456h-6.176l-1.248 3.36 2.432.384v1.44h-6.496Zm8.448-13.632-2.528 6.816h4.992l-2.464-6.816Z"
    clip-rule="evenodd" />
  <path
    d="M170.818 12.112h2.176l.704-3.232h6.56l-9.696 14.656v1.152h14.528l.256-4.8h-2.24l-.64 3.168h-7.296L184.866 8.4V7.248h-13.824l-.224 4.864Zm19.928.064c0-1.088-.022-2.165-.064-3.232l-2.336-.256v-1.44h8.704v1.44l-2.4.256a152.212 152.212 0 0 0-.032 3.2v7.616c0 1.088.01 2.165.032 3.232l2.4.256v1.44h-8.704v-1.44l2.368-.256c.021-1.067.032-2.133.032-3.2v-7.616Zm12.546 0v7.584c0 1.088-.011 2.165-.032 3.232l-2.368.256v1.44h14.528l.352-5.152h-2.208l-.768 3.52h-5.568l-.064-3.136v-7.744c0-1.088.011-2.165.032-3.232l2.464-.256v-1.44h-8.768v1.44l2.368.256c.021 1.067.032 2.144.032 3.232Zm18.296 0c0-1.088-.01-2.165-.032-3.232l-2.368-.256v-1.44h8.768v1.44l-2.464.256a164.182 164.182 0 0 0-.032 3.232v7.744c.022 1.024.043 2.07.064 3.136h5.568l.768-3.52h2.208l-.352 5.152h-14.528v-1.44l2.368-.256c.022-1.067.032-2.144.032-3.232v-7.584Zm18.297 0c0-1.088-.022-2.165-.064-3.232l-2.336-.256v-1.44h14.4l.256 4.736h-2.208l-.544-3.104h-5.568l-.064 3.168v2.848h3.52l.384-2.208h1.6v6.016h-1.6l-.352-2.176h-3.552v3.392l.064 3.168h6.144l.543-3.104h2.209l-.224 4.704h-15.008v-1.44l2.368-.256c.021-1.067.032-2.133.032-3.2v-7.616Zm-133.652 0c0-1.088-.021-2.165-.064-3.232l-2.336-.256v-1.44h14.4l.256 4.736h-2.208l-.544-3.104h-5.568l-.064 3.168v2.848h3.52l.384-2.208h1.6v6.016h-1.6l-.352-2.176h-3.552v3.392l.064 3.168h6.144l.544-3.104h2.208l-.224 4.704h-15.008v-1.44l2.368-.256c.022-1.067.032-2.133.032-3.2v-7.616ZM92.868 7.248v1.44l3.104.352-.032 9.44-9.088-11.232H81.38v1.44l2.016.224.288.384v13.632l-2.4.32v1.44h7.296v-1.44l-3.136-.384.064-11.296 10.528 13.248h1.728V9.04l2.368-.352v-1.44h-7.264Zm-45.961 4.928v7.584c0 1.088-.01 2.165-.032 3.232l-2.368.256v1.44h14.528l.352-5.152h-2.208l-.768 3.52h-5.568l-.064-3.136v-7.744c0-1.088.01-2.165.032-3.232l2.464-.256v-1.44h-8.768v1.44l2.368.256c.021 1.067.032 2.144.032 3.232ZM12.864 3.472v1.504l2.592.288c.043 1.259.064 2.528.064 3.808v3.904H6.848V9.232l.064-3.968 2.624-.288V3.472H0v1.504l2.656.288c.043 1.365.064 2.73.064 4.096v9.504c0 1.365-.021 2.71-.064 4.032L0 23.184v1.504h9.536v-1.504l-2.624-.288-.064-3.936v-4.32h8.672v4.16c0 1.387-.021 2.752-.064 4.096l-2.592.288v1.504H22.4v-1.504l-2.656-.288-.064-4.064V9.296l.064-4.032 2.656-.288V3.472h-9.536ZM0 32.816h252.717v1H0v-1Zm240.181 22.776c0 .16.08.24.24.24h6.888c.16 0 .24-.08.24-.24V54.08c0-.16-.08-.24-.24-.24h-4.728c-.064 0-.096-.032-.096-.096v-11.52c0-.16-.08-.24-.24-.24h-1.824c-.16 0-.24.08-.24.24v13.368Z" />
  <path
    d="M236.229 55.832c-.144 0-.232-.072-.264-.216l-.408-2.064c0-.032-.016-.056-.048-.072-.016-.016-.04-.024-.072-.024h-3.336a.213.213 0 0 0-.096.024c-.016.016-.024.04-.024.072l-.432 2.064c-.016.144-.104.216-.264.216h-1.824c-.176 0-.24-.088-.192-.264l3.192-13.368c.032-.144.12-.216.264-.216h2.112c.16 0 .248.072.264.216l3.216 13.368.024.096c0 .112-.072.168-.216.168h-1.896Zm-3.816-4.296c-.016.016-.016.04 0 .072.016.016.04.024.072.024h2.592c.048 0 .072-.032.072-.096l-1.272-6.312c-.016-.048-.032-.072-.048-.072s-.032.024-.048.072l-1.368 6.312Z"
    clip-rule="evenodd" />
  <path
    d="M225.064 55.592c0 .16.08.24.24.24h1.824c.16 0 .24-.08.24-.24V42.248c0-.16-.08-.24-.24-.24h-1.824c-.16 0-.24.08-.24.24v13.344Zm-8.62.24c-.16 0-.24-.08-.24-.24V42.224c0-.16.08-.24.24-.24h1.824c.16 0 .24.08.24.24v11.52c0 .064.032.096.096.096h4.728c.16 0 .24.08.24.24v1.512c0 .16-.08.24-.24.24h-6.888Zm-5.021-.24c0 .16.08.24.24.24h1.824c.16 0 .24-.08.24-.24V42.248c0-.16-.08-.24-.24-.24h-1.824c-.16 0-.24.08-.24.24v13.344Zm-4.817-13.44c.08-.112.176-.168.288-.168h1.824c.16 0 .24.08.24.24v13.368c0 .16-.08.24-.24.24h-1.824c-.16 0-.24-.08-.24-.24v-8.904c0-.048-.016-.072-.048-.072-.032-.016-.056 0-.072.048l-1.752 2.712c-.08.112-.152.168-.216.168s-.136-.056-.216-.168l-1.8-2.808c-.016-.048-.04-.064-.072-.048-.032 0-.048.024-.048.072v9c0 .16-.08.24-.24.24h-1.824c-.16 0-.24-.08-.24-.24V42.224c0-.16.08-.24.24-.24h1.824c.112 0 .208.056.288.168l2.016 3.48c.016.016.04.024.072.024.032 0 .056-.008.072-.024l1.968-3.48Z" />
  <path
    d="M195.91 55.616c.032.144.12.216.264.216h1.896c.144 0 .216-.056.216-.168l-.024-.096-3.216-13.368c-.016-.144-.104-.216-.264-.216h-2.112c-.144 0-.232.072-.264.216l-3.192 13.368c-.048.176.016.264.192.264h1.824c.16 0 .248-.072.264-.216l.432-2.064c0-.032.008-.056.024-.072a.213.213 0 0 1 .096-.024h3.336c.032 0 .056.008.072.024.032.016.048.04.048.072l.408 2.064Zm-3.552-4.008c-.016-.032-.016-.056 0-.072l1.368-6.312c.016-.048.032-.072.048-.072s.032.024.048.072l1.272 6.312c0 .064-.024.096-.072.096h-2.592c-.032 0-.056-.008-.072-.024Z"
    clip-rule="evenodd" />
  <path
    d="M188.276 43.76c0 .16-.08.24-.24.24h-4.728c-.064 0-.096.032-.096.096v3.696c0 .064.032.096.096.096h2.856c.16 0 .24.08.24.24v1.536c0 .16-.08.24-.24.24h-2.856c-.064 0-.096.032-.096.096v5.592c0 .16-.08.24-.24.24h-1.824c-.16 0-.24-.08-.24-.24V42.224c0-.16.08-.24.24-.24h6.888c.16 0 .24.08.24.24v1.536Zm-13.869-1.536c0-.16-.08-.24-.24-.24h-7.896c-.16 0-.24.08-.24.24v1.536c0 .16.08.24.24.24h2.64c.064 0 .096.032.096.096v11.496c0 .16.08.24.24.24h1.824c.16 0 .24-.08.24-.24V44.096c0-.064.032-.096.096-.096h2.76c.16 0 .24-.08.24-.24v-1.536Zm-9.568 1.536c0 .16-.08.24-.24.24h-4.752c-.064 0-.096.032-.096.096v3.696c0 .064.032.096.096.096h2.856c.16 0 .24.08.24.24v1.536c0 .16-.08.24-.24.24h-2.856c-.064 0-.096.032-.096.096v3.744c0 .064.032.096.096.096h4.752c.16 0 .24.08.24.24v1.512c0 .16-.08.24-.24.24h-6.912c-.16 0-.24-.08-.24-.24V42.248c0-.16.08-.24.24-.24h6.912c.16 0 .24.08.24.24v1.512Zm-21.056 11.832c0 .16.08.24.24.24h6.888c.16 0 .24-.08.24-.24V54.08c0-.16-.08-.24-.24-.24h-4.728c-.064 0-.096-.032-.096-.096v-11.52c0-.16-.08-.24-.24-.24h-1.824c-.16 0-.24.08-.24.24v13.368Z" />
  <path
    d="M139.831 55.832c-.144 0-.232-.072-.264-.216l-.408-2.064c0-.032-.016-.056-.048-.072-.016-.016-.04-.024-.072-.024h-3.336a.213.213 0 0 0-.096.024c-.016.016-.024.04-.024.072l-.432 2.064c-.016.144-.104.216-.264.216h-1.824c-.176 0-.24-.088-.192-.264l3.192-13.368c.032-.144.12-.216.264-.216h2.112c.16 0 .248.072.264.216l3.216 13.368.024.096c0 .112-.072.168-.216.168h-1.896Zm-3.816-4.296c-.016.016-.016.04 0 .072.016.016.04.024.072.024h2.592c.048 0 .072-.032.072-.096l-1.272-6.312c-.016-.048-.032-.072-.048-.072s-.032.024-.048.072l-1.368 6.312Z"
    clip-rule="evenodd" />
  <path
    d="M124.583 54.992c.72.672 1.688 1.008 2.904 1.008s2.184-.336 2.904-1.008c.736-.688 1.104-1.616 1.104-2.784v-3.336c0-.16-.08-.24-.24-.24h-3.432c-.16 0-.24.08-.24.24v1.176c0 .16.08.24.24.24h1.272c.064 0 .096.032.096.096v1.848c0 .56-.152 1-.456 1.32-.304.304-.72.456-1.248.456-.512 0-.92-.152-1.224-.456-.304-.32-.456-.76-.456-1.32v-6.648c0-.56.152-.992.456-1.296.304-.304.712-.456 1.224-.456.528 0 .944.152 1.248.456.304.304.456.736.456 1.296v.624c0 .16.08.24.24.24h1.824c.16 0 .24-.08.24-.24v-.576c0-1.184-.368-2.112-1.104-2.784-.72-.688-1.688-1.032-2.904-1.032s-2.184.336-2.904 1.008c-.72.672-1.08 1.6-1.08 2.784v6.6c0 1.184.36 2.112 1.08 2.784ZM117.53 56c-1.2 0-2.168-.376-2.904-1.128-.72-.768-1.08-1.8-1.08-3.096v-9.528c0-.16.08-.24.24-.24h1.824c.16 0 .24.08.24.24v9.696c0 .64.152 1.144.456 1.512.304.368.712.552 1.224.552.528 0 .944-.184 1.248-.552.304-.368.456-.872.456-1.512v-9.696c0-.16.08-.24.24-.24h1.824c.16 0 .24.08.24.24v9.528c0 1.296-.368 2.328-1.104 3.096-.72.752-1.688 1.128-2.904 1.128Zm-13.117-1.008c.72.672 1.664 1.008 2.832 1.008 1.2 0 2.16-.336 2.88-1.008.72-.672 1.08-1.576 1.08-2.712V42.224c0-.16-.08-.24-.24-.24h-1.848c-.16 0-.24.08-.24.24v10.08c0 .528-.152.944-.456 1.248-.288.304-.68.456-1.176.456-.48 0-.872-.152-1.176-.456-.288-.304-.432-.72-.432-1.248V50.96c0-.16-.08-.24-.24-.24h-1.824c-.16 0-.24.08-.24.24v1.32c0 1.136.36 2.04 1.08 2.712Zm-4.995-12.744c0-.16.08-.24.24-.24h1.8c.16 0 .24.08.24.24v13.344c0 .16-.08.24-.24.24H99.61c-.128 0-.216-.064-.264-.192l-3.648-8.28c-.016-.032-.04-.048-.072-.048-.032 0-.048.024-.048.072l.024 8.208c0 .16-.08.24-.24.24h-1.8c-.16 0-.24-.08-.24-.24V42.248c0-.16.08-.24.24-.24h1.824c.128 0 .216.064.264.192l3.672 8.256c.016.032.04.048.072.048.032 0 .048-.024.048-.072l-.024-8.184Z" />
  <path
    d="M84.13 54.944c.736.704 1.72 1.056 2.952 1.056s2.208-.352 2.928-1.056c.736-.72 1.104-1.704 1.104-2.952v-6.144c0-1.264-.368-2.248-1.104-2.952-.72-.72-1.696-1.08-2.928-1.08s-2.216.36-2.952 1.08c-.72.704-1.08 1.688-1.08 2.952v6.144c0 1.248.36 2.232 1.08 2.952Zm4.224-1.44c-.304.336-.728.504-1.272.504-.528 0-.952-.168-1.272-.504-.304-.336-.456-.808-.456-1.416v-6.336c0-.608.152-1.08.456-1.416.32-.336.744-.504 1.272-.504.544 0 .968.168 1.272.504.304.336.456.808.456 1.416v6.336c0 .608-.152 1.08-.456 1.416Z"
    clip-rule="evenodd" />
  <path
    d="M77.19 56c-1.215 0-2.183-.352-2.903-1.056-.72-.704-1.08-1.672-1.08-2.904v-6.264c0-1.248.36-2.216 1.08-2.904.72-.704 1.688-1.056 2.904-1.056s2.184.352 2.904 1.056c.736.688 1.104 1.656 1.104 2.904v.24c0 .16-.08.24-.24.24l-1.824.072c-.16 0-.24-.08-.24-.24v-.48c0-.56-.152-.992-.456-1.296-.304-.32-.72-.48-1.248-.48-.512 0-.92.16-1.224.48-.304.304-.456.736-.456 1.296v6.6c0 .56.152 1 .456 1.32.304.32.712.48 1.224.48.528 0 .944-.152 1.248-.456.304-.32.456-.768.456-1.344v-.48c0-.16.08-.24.24-.24l1.824.096c.16 0 .24.08.24.24v.216c0 1.232-.368 2.2-1.104 2.904-.72.704-1.688 1.056-2.904 1.056Zm-17.408-.408c0 .16.08.24.24.24h6.889c.16 0 .24-.08.24-.24V54.08c0-.16-.08-.24-.24-.24h-4.729c-.064 0-.096-.032-.096-.096v-11.52c0-.16-.08-.24-.24-.24h-1.823c-.16 0-.24.08-.24.24v13.368Zm-4.541.24c-.16 0-.24-.08-.24-.24V42.248c0-.16.08-.24.24-.24h1.824c.16 0 .24.08.24.24v13.344c0 .16-.08.24-.24.24h-1.824ZM52.825 44c.16 0 .24-.08.24-.24v-1.512c0-.16-.08-.24-.24-.24h-6.912c-.16 0-.24.08-.24.24v13.344c0 .16.08.24.24.24h6.912c.16 0 .24-.08.24-.24V54.08c0-.16-.08-.24-.24-.24h-4.752c-.064 0-.096-.032-.096-.096V50c0-.064.032-.096.096-.096h2.856c.16 0 .24-.08.24-.24v-1.536c0-.16-.08-.24-.24-.24h-2.856c-.064 0-.096-.032-.096-.096v-3.696c0-.064.032-.096.096-.096h4.752ZM39.733 56c-1.167 0-2.111-.328-2.831-.984-.705-.672-1.056-1.536-1.056-2.592v-.456c0-.16.08-.24.24-.24h1.776c.16 0 .24.08.24.24v.192c0 .56.152 1.016.456 1.368.303.336.696.504 1.175.504.48 0 .873-.16 1.177-.48.304-.32.456-.744.456-1.272 0-.432-.176-.824-.529-1.176-.352-.368-.912-.832-1.68-1.392l-.887-.672c-.849-.656-1.473-1.24-1.873-1.752-.4-.512-.6-1.136-.6-1.872 0-1.088.353-1.96 1.056-2.616.72-.656 1.648-.984 2.785-.984 1.168 0 2.111.344 2.831 1.032.72.688 1.08 1.584 1.08 2.688v.336c0 .16-.08.24-.24.24h-1.776c-.16 0-.24-.08-.24-.24v-.24c0-.544-.151-.984-.456-1.32-.304-.336-.704-.504-1.2-.504-.464 0-.84.144-1.127.432-.288.288-.432.688-.432 1.2 0 .48.16.888.48 1.224.336.336.911.784 1.727 1.344.833.56 1.457 1.016 1.873 1.368a4.75 4.75 0 0 1 1.08 1.248c.288.464.431 1.008.431 1.632 0 1.136-.367 2.048-1.103 2.736-.72.672-1.665 1.008-2.833 1.008Zm-8.114-13.992c-.16 0-.24.08-.24.24l.023 8.184c0 .048-.015.072-.047.072s-.056-.016-.073-.048L27.61 42.2c-.047-.128-.136-.192-.264-.192h-1.823c-.16 0-.24.08-.24.24v13.344c0 .16.08.24.24.24h1.8c.16 0 .24-.08.24-.24l-.024-8.208c0-.048.015-.072.047-.072.033 0 .056.016.073.048l3.648 8.28c.048.128.136.192.264.192h1.848c.16 0 .24-.08.24-.24V42.248c0-.16-.08-.24-.24-.24h-1.8Z" />
  <path
    d="M19.043 56c-1.232 0-2.216-.352-2.952-1.056-.72-.72-1.08-1.704-1.08-2.952v-6.144c0-1.264.36-2.248 1.08-2.952.736-.72 1.72-1.08 2.952-1.08s2.208.36 2.928 1.08c.736.704 1.104 1.688 1.104 2.952v6.144c0 1.248-.368 2.232-1.104 2.952-.72.704-1.696 1.056-2.928 1.056Zm0-1.992c.544 0 .968-.168 1.272-.504.304-.336.456-.808.456-1.416v-6.336c0-.608-.152-1.08-.456-1.416-.304-.336-.728-.504-1.272-.504-.528 0-.952.168-1.272.504-.304.336-.456.808-.456 1.416v6.336c0 .608.152 1.08.456 1.416.32.336.744.504 1.272.504Z"
    clip-rule="evenodd" />
  <path
    d="M6.248 54.944C6.968 55.648 7.936 56 9.152 56s2.184-.352 2.904-1.056c.736-.704 1.104-1.672 1.104-2.904v-.216c0-.16-.08-.24-.24-.24l-1.825-.096c-.16 0-.24.08-.24.24v.48c0 .576-.152 1.024-.456 1.344-.303.304-.72.456-1.247.456-.512 0-.92-.16-1.224-.48-.304-.32-.456-.76-.456-1.32v-6.6c0-.56.152-.992.456-1.296.304-.32.712-.48 1.224-.48.528 0 .944.16 1.248.48.303.304.455.736.455 1.296v.48c0 .16.08.24.24.24l1.824-.072c.16 0 .24-.08.24-.24v-.24c0-1.248-.368-2.216-1.104-2.904-.72-.704-1.688-1.056-2.903-1.056-1.216 0-2.184.352-2.904 1.056-.72.688-1.08 1.656-1.08 2.904v6.264c0 1.232.36 2.2 1.08 2.904Z" />
</svg>
