<svg xmlns="http://www.w3.org/2000/svg" xmlns:xlink="http://www.w3.org/1999/xlink" viewBox="0 0 154.196 166.918">
  <defs>
    <ellipse id="a" cx="73.264" cy="73.239" rx="73.264" ry="73.239" />
  </defs>
  <g fill="none" fill-rule="evenodd">
    <g transform="translate(3.834 11.06)">
      <mask id="b" fill="#fff">
        <use xlink:href="#a" />
      </mask>
      <path fill="currentColor" fill-rule="nonzero"
        d="M-2.5 121.598c-.396.013-.608-.41-.637-1.27-.027-.782.174-1.884.601-3.307.715-2.294 2.035-5.469 3.959-9.525 2.005-3.98 4.39-8.444 7.156-13.39a1269.82 1269.82 0 0 1 8.634-15.434l-5.202.88c-1.655.291-3.27.62-4.842.986-10.157 2.065-17.558 4.742-22.203 8.03-4.569 3.206-6.81 6.099-6.722 8.678.053 1.564.852 2.906 2.396 4.028.164.15.247.265.25.343.002.079-.155.123-.472.134-.475.016-.835-.09-1.08-.316-3.49-2.386-5.296-5.377-5.418-8.972-.087-2.58.815-5.193 2.708-7.84 1.971-2.649 5.059-5.1 9.263-7.356 4.281-2.336 9.807-4.205 16.577-5.608a108.21 108.21 0 0 1 10.048-1.75 91.96 91.96 0 0 1 10.322-.7 561.535 561.535 0 0 1 7.664-12.468c2.483-3.918 4.704-7.398 6.662-10.438 2.035-3.12 3.696-5.563 4.984-7.329 1.367-1.768 2.21-2.657 2.526-2.668l1.069-.036c.713-.024 1.077.199 1.093.667.016.47-.393 1.266-1.227 2.39-2.874 4.088-6.007 8.733-9.398 13.934a539.594 539.594 0 0 0-10.162 15.956c3.73.109 7.428.453 11.094 1.033 1.436.265 3.113.638 5.032 1.121a37.117 37.117 0 0 1 5.654 1.922c1.927.717 3.585 1.678 4.973 2.883 1.389 1.205 2.23 2.664 2.527 4.376.097.544.027.82-.21.828-.161-.073-.326-.262-.495-.57-.349-.927-1.443-1.633-3.282-2.12a30.652 30.652 0 0 0-5.623-.983c-1.91-.248-3.343-.395-4.296-.441a81.292 81.292 0 0 0-7.732-.09c-4.355.147-8.742.53-13.16 1.15a609.55 609.55 0 0 0-9.208 16.04c-2.916 5.186-5.488 10.007-7.715 14.465-2.148 4.455-3.842 8.268-5.082 11.44-.367.874-.709 1.316-1.026 1.327Zm136.754-94.265c4.599 2.038 6.957 4.78 7.073 8.224.096 2.817-1.349 5.922-4.333 9.315-2.984 3.392-7.677 6.803-14.077 10.232-3.12 1.751-6.485 3.276-10.097 4.573a143.066 143.066 0 0 1-10.85 3.424 94.847 94.847 0 0 1 4.274-.498 74.08 74.08 0 0 1 4.045-.254c8.81-.298 15.25.933 19.316 3.695 4.064 2.684 6.167 6.1 6.307 10.248.101 2.974-.744 6.177-2.535 9.607-1.794 3.352-4.384 6.652-7.77 9.901-3.31 3.168-7.347 6.008-12.109 8.52-3.357 1.76-6.77 3.09-10.235 3.99-3.467.901-6.664 1.519-9.593 1.853-2.926.413-5.342.651-7.247.716-4.763.16-8.626-.1-11.59-.784-2.883-.685-5.138-1.55-6.762-2.592-1.622-.963-2.88-1.744-3.775-2.34-.981-.83-1.476-1.36-1.484-1.596-.003-.078.075-.12.234-.125.317-.01.677.055 1.08.198.478.063.84.168 1.083.316 2.81.846 5.209 1.274 7.196 1.285l6.31-.214c2.62-.088 5.787-.43 9.501-1.026 3.715-.596 7.578-1.51 11.59-2.744 4.09-1.235 7.848-2.89 11.275-4.965 4.595-2.742 8.064-5.915 10.405-9.52 2.421-3.609 3.577-7.018 3.468-10.227-.116-3.444-1.764-6.326-4.941-8.648-3.178-2.322-8.101-3.37-14.769-3.144l-2.024.068c-.714.025-1.467.09-2.258.194-3.167.343-6.56 1.045-10.18 2.108-3.543.982-6.759 2.227-9.648 3.735-2.813 1.428-4.785 3.022-5.917 4.785-1.89 2.885-3.432 5.444-4.628 7.679a95.868 95.868 0 0 0-3.13 6.1 155.727 155.727 0 0 1-3.013 6.097c-.36 1.11-1.016 1.68-1.968 1.712-.476.017-.725-.289-.746-.915-.014-.391.016-.705.087-.943.415-1.816 1.442-4.359 3.08-7.627 1.716-3.27 3.817-6.947 6.301-11.027a358.253 358.253 0 0 1 7.81-12.254 513.936 513.936 0 0 1 7.961-11.318c2.505-3.454 4.637-6.23 6.393-8.327 1.754-2.175 2.87-3.27 3.346-3.287.476-.016.88.206 1.214.665.334.458.467.885.401 1.279l-1.484 1.93a857.507 857.507 0 0 0-3.766 4.948 230.93 230.93 0 0 1-4.675 6.27c-1.595 2.17-3.039 4.138-4.33 5.906a910.097 910.097 0 0 0-2.853 3.74 338.363 338.363 0 0 0 21.05-4.944 87.828 87.828 0 0 0 20.11-8.085c3.9-2.17 6.921-4.466 9.065-6.89 2.22-2.504 3.296-4.734 3.23-6.691-.07-2.035-1.436-3.674-4.1-4.916-2.667-1.32-6.938-1.88-12.812-1.682-2.381.08-5.309.454-8.783 1.12-3.474.666-7.22 1.537-11.235 2.614a134.76 134.76 0 0 0-9.072 2.824c2.72-4.297 5.442-8.538 8.166-12.723l-.756 1.163c3.406-.948 6.617-1.692 9.634-2.23 3.789-.756 6.874-1.173 9.256-1.254 8.334-.282 14.762.637 19.284 2.756ZM79.76 33.545a3406.41 3406.41 0 0 0-3.678 6.006 2367.67 2367.67 0 0 0-4.69 7.784c-1.341.856-2.501 1.715-3.483 2.578-1.315 1.063-1.72 1.978-1.218 2.745.167.23.254.462.262.696.005.157-.111.24-.35.247-.24-.07-.482-.18-.726-.328-1.296-.74-2.283-1.725-2.96-2.956-.678-1.23-1.034-2.355-1.068-3.372a4.304 4.304 0 0 1 .083-1.061c.148-.318.258-.596.33-.834 1.433-2.243 3.785-4.36 7.056-6.35 3.052-1.86 6.49-3.56 10.315-5.104Z"
        mask="url(#b)" />
    </g>
    <path fill="currentColor" fill-rule="nonzero"
      d="M77.098 7.229c42.58 0 77.098 34.506 77.098 77.071 0 42.566-34.518 77.072-77.098 77.072S0 126.866 0 84.3C0 41.735 34.518 7.23 77.098 7.23Zm0 4.258C36.87 11.487 4.26 44.087 4.26 84.3c0 40.214 32.61 72.813 72.838 72.813 40.227 0 72.838-32.6 72.838-72.813 0-40.214-32.61-72.813-72.838-72.813Z" />
    <path fill="currentColor" fill-rule="nonzero"
      d="M25.932 166.917c-.806.027-1.239-.835-1.298-2.586-.054-1.592.354-3.837 1.225-6.735 1.456-4.671 4.068-10.975 7.835-18.911 3.928-7.942 8.473-16.782 13.632-26.519a1793.175 1793.175 0 0 1 16.897-30.214 2556.248 2556.248 0 0 1 17.873-30.009c5.965-9.764 11.4-18.554 16.3-26.37 5.064-7.82 9.213-14.017 12.448-18.589 3.397-4.577 5.499-6.88 6.305-6.907l2.177-.073c1.451-.05 2.193.404 2.226 1.359.032.955-.801 2.577-2.5 4.865-6.476 8.985-13.318 19.097-20.525 30.338a1234.912 1234.912 0 0 0-21.598 34.437 1431.354 1431.354 0 0 0-20.122 35.105c-6.39 11.532-12.079 22.322-17.066 32.372-4.987 10.05-8.894 18.629-11.721 25.737-.747 1.778-1.443 2.678-2.088 2.7Z" />
  </g>
</svg>