<svg xmlns="http://www.w3.org/2000/svg" fill="currentColor" viewBox="0 0 254 64">
  <path
    d="M240.526 16.528v-4.352c0-1.088-.021-2.165-.064-3.232l-2.336-.256v-1.44h14.4l.256 4.736h-2.208l-.544-3.104h-5.568l-.064 3.168v2.848h3.52l.384-2.208h1.6v6.016h-1.6l-.352-2.176h-3.552v3.392l.064 3.168h6.144l.544-3.104h2.208l-.224 4.704h-15.008v-1.44l2.368-.256c.022-1.067.032-2.133.032-3.2v-3.264Zm-18.296-1.12v-3.232c0-1.088-.011-2.165-.032-3.232l-2.368-.256v-1.44h8.768v1.44l-2.464.256a164.184 164.184 0 0 0-.032 3.232v7.744l.064 3.136h5.568l.768-3.52h2.208l-.352 5.152H219.83v-1.44l2.368-.256c.021-1.067.032-2.144.032-3.232v-4.352Zm-18.296 0v-3.232c0-1.088-.011-2.165-.032-3.232l-2.368-.256v-1.44h8.768v1.44l-2.464.256a156.792 156.792 0 0 0-.032 3.232v7.744l.064 3.136h5.568l.768-3.52h2.208l-.352 5.152h-14.528v-1.44l2.368-.256c.021-1.067.032-2.144.032-3.232v-4.352Zm-12.547 1.12v-4.352c0-1.088-.021-2.165-.064-3.232l-2.336-.256v-1.44h8.704v1.44l-2.4.256a159.316 159.316 0 0 0-.032 3.2v7.616c0 1.088.011 2.165.032 3.232l2.4.256v1.44h-8.704v-1.44l2.368-.256c.022-1.067.032-2.133.032-3.2v-3.264Zm-17.751-4.416h-2.176l.224-4.864h13.824V8.4l-9.696 14.656h7.296l.64-3.168h2.24l-.256 4.8h-14.528v-1.152L180.9 8.88h-6.56l-.704 3.232Zm-14.575-1.056-2.528 6.816h4.992l-2.464-6.816Zm-8.448 13.632v-1.44l2.432-.352 5.952-15.712h2.432l5.888 15.872 1.888.256v1.376h-8.32v-1.376l2.464-.352-1.248-3.456h-6.176l-1.248 3.36 2.432.384v1.44h-6.496Zm-11.797-10.24h-1.44v4.48l.064 4.096h1.504c3.605 0 5.408-1.408 5.408-4.224 0-1.472-.448-2.56-1.344-3.264-.896-.725-2.293-1.088-4.192-1.088Zm.32-9.344h-1.696l-.064 4.064v3.712h1.312c1.643 0 2.848-.33 3.616-.992.768-.661 1.152-1.675 1.152-3.04 0-1.323-.363-2.272-1.088-2.848-.704-.597-1.781-.896-3.232-.896Zm-8.608-.128V3.472h9.792c2.453 0 4.267.48 5.44 1.44s1.76 2.176 1.76 3.648c0 1.11-.384 2.123-1.152 3.04-.768.896-2.112 1.525-4.032 1.888 2.261.277 3.883.896 4.864 1.856.981.96 1.472 2.112 1.472 3.456 0 .704-.16 1.408-.48 2.112-.299.683-.8 1.312-1.504 1.888-.683.576-1.621 1.035-2.816 1.376-1.173.341-2.645.512-4.416.512h-8.928v-1.504l2.688-.288c.043-1.344.064-2.699.064-4.064V9.36c0-1.365-.021-2.73-.064-4.096l-2.688-.288Zm-23.653 11.552v-4.352c0-1.088-.021-2.165-.064-3.232l-2.336-.256v-1.44h14.4l.256 4.736h-2.208l-.544-3.104h-5.568l-.064 3.168v2.848h3.52l.384-2.208h1.6v6.016h-1.6l-.352-2.176h-3.552v3.392l.064 3.168h6.144l.544-3.104h2.208l-.224 4.704h-15.008v-1.44l2.368-.256c.021-1.067.032-2.133.032-3.2v-3.264ZM93.51 8.688v-1.44h7.264v1.44l-2.368.352v15.776h-1.728L86.15 11.568l-.064 11.296 3.136.384v1.44h-7.296v-1.44l2.4-.32V9.296l-.288-.384-2.016-.224v-1.44h5.472l9.088 11.232.032-9.44-3.104-.352Zm-27.665 7.84v-4.352a80.8 80.8 0 0 0-.064-3.232l-2.336-.256v-1.44h14.4l.256 4.736h-2.208l-.544-3.104h-5.568a7753.62 7753.62 0 0 1-.064 3.168v2.848h3.52l.384-2.208h1.6v6.016h-1.6l-.352-2.176h-3.552v3.392l.064 3.168h6.144l.544-3.104h2.208l-.224 4.704H63.445v-1.44l2.368-.256c.021-1.067.032-2.133.032-3.2v-3.264Zm7.808-12-.736 1.024a207.69 207.69 0 0 0-2.208-1.088c-.747-.363-1.493-.715-2.24-1.056-.683-.341-1.141-.683-1.376-1.024-.235-.341-.352-.65-.352-.928 0-.363.139-.672.416-.928.299-.277.65-.416 1.056-.416.32 0 .64.085.96.256.341.17.747.49 1.216.96a116.22 116.22 0 0 1 1.632 1.6 38.316 38.316 0 0 1 1.632 1.6Zm-26.104 10.88v-3.232c0-1.088-.01-2.165-.032-3.232l-2.368-.256v-1.44h8.768v1.44l-2.464.256a161.894 161.894 0 0 0-.032 3.232v7.744l.064 3.136h5.568l.768-3.52h2.208l-.352 5.152H45.149v-1.44l2.368-.256c.021-1.067.032-2.144.032-3.232v-4.352Zm-18.609 1.12v-4.352a80.8 80.8 0 0 0-.064-3.232l-2.336-.256v-1.44h14.4l.256 4.736h-2.208l-.544-3.104h-5.568a7753.62 7753.62 0 0 1-.064 3.168v2.848h3.52l.384-2.208h1.6v6.016h-1.6l-.352-2.176h-3.552v3.392l.064 3.168h6.144l.544-3.104h2.208l-.224 4.704H26.54v-1.44l2.368-.256c.021-1.067.032-2.133.032-3.2v-3.264Zm2.816-12 1.632-1.632A102.08 102.08 0 0 1 35.02 1.36c.49-.49.896-.821 1.216-.992.32-.17.64-.256.96-.256.427 0 .779.139 1.056.416.277.256.416.565.416.928 0 .277-.117.587-.352.928-.213.32-.661.65-1.344.992l-2.24 1.088-2.24 1.088-.736-1.024Zm-18.25.448V3.472h9.536v1.504l-2.656.288a6973.81 6973.81 0 0 0-.064 4.032v9.536l.064 4.064 2.656.288v1.504h-9.536v-1.504l2.592-.288a129.3 129.3 0 0 0 .064-4.096v-4.16H7.49v4.32c.021 1.344.042 2.656.064 3.936l2.624.288v1.504H.642v-1.504l2.656-.288c.042-1.323.064-2.667.064-4.032V9.36c0-1.365-.022-2.73-.064-4.096L.642 4.976V3.472h9.536v1.504l-2.624.288-.064 3.968v3.744h8.672V9.072c0-1.28-.022-2.55-.064-3.808l-2.592-.288ZM.642 36.816h252.717v1H.642zm240.421 27.016c-.16 0-.24-.08-.24-.24V50.224c0-.16.08-.24.24-.24h1.824c.16 0 .24.08.24.24v11.52c0 .064.032.096.096.096h4.728c.16 0 .24.08.24.24v1.512c0 .16-.08.24-.24.24h-6.888Zm-4.192 0c-.144 0-.232-.072-.264-.216l-.408-2.064c0-.032-.016-.056-.048-.072-.016-.016-.04-.024-.072-.024h-3.336a.213.213 0 0 0-.096.024c-.016.016-.024.04-.024.072l-.432 2.064c-.016.144-.104.216-.264.216h-1.824c-.176 0-.24-.088-.192-.264l3.192-13.368c.032-.144.12-.216.264-.216h2.112c.16 0 .248.072.264.216l3.216 13.368.024.096c0 .112-.072.168-.216.168h-1.896Zm-3.816-4.296c-.016.016-.016.04 0 .072.016.016.04.024.072.024h2.592c.048 0 .072-.032.072-.096l-1.272-6.312c-.016-.048-.032-.072-.048-.072s-.032.024-.048.072l-1.368 6.312Zm-7.109 4.296c-.16 0-.24-.08-.24-.24V50.248c0-.16.08-.24.24-.24h1.824c.16 0 .24.08.24.24v13.344c0 .16-.08.24-.24.24h-1.824Zm-8.86 0c-.16 0-.24-.08-.24-.24V50.224c0-.16.08-.24.24-.24h1.824c.16 0 .24.08.24.24v11.52c0 .064.032.096.096.096h4.728c.16 0 .24.08.24.24v1.512c0 .16-.08.24-.24.24h-6.888Zm-4.781 0c-.16 0-.24-.08-.24-.24V50.248c0-.16.08-.24.24-.24h1.824c.16 0 .24.08.24.24v13.344c0 .16-.08.24-.24.24h-1.824Zm-5.057-13.68c.08-.112.176-.168.288-.168h1.824c.16 0 .24.08.24.24v13.368c0 .16-.08.24-.24.24h-1.824c-.16 0-.24-.08-.24-.24v-8.904c0-.048-.016-.072-.048-.072-.032-.016-.056 0-.072.048l-1.752 2.712c-.08.112-.152.168-.216.168s-.136-.056-.216-.168l-1.8-2.808c-.016-.048-.04-.064-.072-.048-.032 0-.048.024-.048.072v9c0 .16-.08.24-.24.24h-1.824c-.16 0-.24-.08-.24-.24V50.224c0-.16.08-.24.24-.24h1.824c.112 0 .208.056.288.168l2.016 3.48c.016.016.04.024.072.024.032 0 .056-.008.072-.024l1.968-3.48Zm-10.432 13.68c-.144 0-.232-.072-.264-.216l-.408-2.064c0-.032-.016-.056-.048-.072-.016-.016-.04-.024-.072-.024h-3.336a.213.213 0 0 0-.096.024c-.016.016-.024.04-.024.072l-.432 2.064c-.016.144-.104.216-.264.216h-1.824c-.176 0-.24-.088-.192-.264l3.192-13.368c.032-.144.12-.216.264-.216h2.112c.16 0 .248.072.264.216l3.216 13.368.024.096c0 .112-.072.168-.216.168h-1.896ZM193 59.536c-.016.016-.016.04 0 .072.016.016.04.024.072.024h2.592c.048 0 .072-.032.072-.096l-1.272-6.312c-.016-.048-.032-.072-.048-.072s-.032.024-.048.072L193 59.536Zm-4.083-7.776c0 .16-.08.24-.24.24h-4.728c-.064 0-.096.032-.096.096v3.696c0 .064.032.096.096.096h2.856c.16 0 .24.08.24.24v1.536c0 .16-.08.24-.24.24h-2.856c-.064 0-.096.032-.096.096v5.592c0 .16-.08.24-.24.24h-1.824c-.16 0-.24-.08-.24-.24V50.224c0-.16.08-.24.24-.24h6.888c.16 0 .24.08.24.24v1.536Zm-14.109-1.776c.16 0 .24.08.24.24v1.536c0 .16-.08.24-.24.24h-2.76c-.064 0-.096.032-.096.096v11.496c0 .16-.08.24-.24.24h-1.824c-.16 0-.24-.08-.24-.24V52.096c0-.064-.032-.096-.096-.096h-2.64c-.16 0-.24-.08-.24-.24v-1.536c0-.16.08-.24.24-.24h7.896Zm-9.328 1.776c0 .16-.08.24-.24.24h-4.752c-.064 0-.096.032-.096.096v3.696c0 .064.032.096.096.096h2.856c.16 0 .24.08.24.24v1.536c0 .16-.08.24-.24.24h-2.856c-.064 0-.096.032-.096.096v3.744c0 .064.032.096.096.096h4.752c.16 0 .24.08.24.24v1.512c0 .16-.08.24-.24.24h-6.912c-.16 0-.24-.08-.24-.24V50.248c0-.16.08-.24.24-.24h6.912c.16 0 .24.08.24.24v1.512Zm-20.816 12.072c-.16 0-.24-.08-.24-.24V50.224c0-.16.08-.24.24-.24h1.824c.16 0 .24.08.24.24v11.52c0 .064.032.096.096.096h4.728c.16 0 .24.08.24.24v1.512c0 .16-.08.24-.24.24h-6.888Zm-4.192 0c-.144 0-.232-.072-.264-.216l-.408-2.064c0-.032-.016-.056-.048-.072-.016-.016-.04-.024-.072-.024h-3.336a.213.213 0 0 0-.096.024c-.016.016-.024.04-.024.072l-.432 2.064c-.016.144-.104.216-.264.216h-1.824c-.176 0-.24-.088-.192-.264l3.192-13.368c.032-.144.12-.216.264-.216h2.112c.16 0 .248.072.264.216l3.216 13.368.024.096c0 .112-.072.168-.216.168h-1.896Zm-3.816-4.296c-.016.016-.016.04 0 .072.016.016.04.024.072.024h2.592c.048 0 .072-.032.072-.096l-1.272-6.312c-.016-.048-.032-.072-.048-.072s-.032.024-.048.072l-1.368 6.312ZM128.129 64c-1.216 0-2.184-.336-2.904-1.008-.72-.672-1.08-1.6-1.08-2.784v-6.6c0-1.184.36-2.112 1.08-2.784.72-.672 1.688-1.008 2.904-1.008s2.184.344 2.904 1.032c.736.672 1.104 1.6 1.104 2.784v.576c0 .16-.08.24-.24.24h-1.824c-.16 0-.24-.08-.24-.24v-.624c0-.56-.152-.992-.456-1.296-.304-.304-.72-.456-1.248-.456-.512 0-.92.152-1.224.456-.304.304-.456.736-.456 1.296v6.648c0 .56.152 1 .456 1.32.304.304.712.456 1.224.456.528 0 .944-.152 1.248-.456.304-.32.456-.76.456-1.32v-1.848c0-.064-.032-.096-.096-.096h-1.272c-.16 0-.24-.08-.24-.24v-1.176c0-.16.08-.24.24-.24h3.432c.16 0 .24.08.24.24v3.336c0 1.168-.368 2.096-1.104 2.784-.72.672-1.688 1.008-2.904 1.008Zm-9.957 0c-1.2 0-2.168-.376-2.904-1.128-.72-.768-1.08-1.8-1.08-3.096v-9.528c0-.16.08-.24.24-.24h1.824c.16 0 .24.08.24.24v9.696c0 .64.152 1.144.456 1.512.304.368.712.552 1.224.552.528 0 .944-.184 1.248-.552.304-.368.456-.872.456-1.512v-9.696c0-.16.08-.24.24-.24h1.824c.16 0 .24.08.24.24v9.528c0 1.296-.368 2.328-1.104 3.096-.72.752-1.688 1.128-2.904 1.128Zm-10.286 0c-1.168 0-2.112-.336-2.832-1.008-.72-.672-1.08-1.576-1.08-2.712v-1.32c0-.16.08-.24.24-.24h1.824c.16 0 .24.08.24.24v1.344c0 .528.144.944.432 1.248.304.304.696.456 1.176.456.496 0 .888-.152 1.176-.456.304-.304.456-.72.456-1.248v-10.08c0-.16.08-.24.24-.24h1.848c.16 0 .24.08.24.24V60.28c0 1.136-.36 2.04-1.08 2.712-.72.672-1.68 1.008-2.88 1.008Zm-7.827-13.752c0-.16.08-.24.24-.24h1.8c.16 0 .24.08.24.24v13.344c0 .16-.08.24-.24.24h-1.848c-.128 0-.216-.064-.264-.192l-3.648-8.28c-.016-.032-.04-.048-.072-.048-.032 0-.048.024-.048.072l.024 8.208c0 .16-.08.24-.24.24h-1.8c-.16 0-.24-.08-.24-.24V50.248c0-.16.08-.24.24-.24h1.824c.128 0 .216.064.264.192l3.672 8.256c.016.032.04.048.072.048.032 0 .048-.024.048-.072l-.024-8.184ZM87.724 64c-1.232 0-2.216-.352-2.952-1.056-.72-.72-1.08-1.704-1.08-2.952v-6.144c0-1.264.36-2.248 1.08-2.952.736-.72 1.72-1.08 2.952-1.08s2.208.36 2.928 1.08c.736.704 1.104 1.688 1.104 2.952v6.144c0 1.248-.368 2.232-1.104 2.952-.72.704-1.696 1.056-2.928 1.056Zm0-1.992c.544 0 .968-.168 1.272-.504.304-.336.456-.808.456-1.416v-6.336c0-.608-.152-1.08-.456-1.416-.304-.336-.728-.504-1.272-.504-.528 0-.952.168-1.272.504-.304.336-.456.808-.456 1.416v6.336c0 .608.152 1.08.456 1.416.32.336.744.504 1.272.504ZM77.832 64c-1.216 0-2.184-.352-2.904-1.056-.72-.704-1.08-1.672-1.08-2.904v-6.264c0-1.248.36-2.216 1.08-2.904.72-.704 1.688-1.056 2.904-1.056s2.184.352 2.904 1.056c.736.688 1.104 1.656 1.104 2.904v.24c0 .16-.08.24-.24.24l-1.824.072c-.16 0-.24-.08-.24-.24v-.48c0-.56-.152-.992-.456-1.296-.304-.32-.72-.48-1.248-.48-.512 0-.92.16-1.224.48-.304.304-.456.736-.456 1.296v6.6c0 .56.152 1 .456 1.32.304.32.712.48 1.224.48.528 0 .944-.152 1.248-.456.304-.32.456-.768.456-1.344v-.48c0-.16.08-.24.24-.24l1.824.096c.16 0 .24.08.24.24v.216c0 1.232-.368 2.2-1.104 2.904-.72.704-1.688 1.056-2.904 1.056Zm-17.168-.168c-.16 0-.24-.08-.24-.24V50.224c0-.16.08-.24.24-.24h1.824c.16 0 .24.08.24.24v11.52c0 .064.032.096.096.096h4.728c.16 0 .24.08.24.24v1.512c0 .16-.08.24-.24.24h-6.888Zm-4.781 0c-.16 0-.24-.08-.24-.24V50.248c0-.16.08-.24.24-.24h1.824c.16 0 .24.08.24.24v13.344c0 .16-.08.24-.24.24h-1.824ZM53.707 51.76c0 .16-.08.24-.24.24h-4.752c-.064 0-.096.032-.096.096v3.696c0 .064.032.096.096.096h2.856c.16 0 .24.08.24.24v1.536c0 .16-.08.24-.24.24h-2.856c-.064 0-.096.032-.096.096v3.744c0 .064.032.096.096.096h4.752c.16 0 .24.08.24.24v1.512c0 .16-.08.24-.24.24h-6.912c-.16 0-.24-.08-.24-.24V50.248c0-.16.08-.24.24-.24h6.912c.16 0 .24.08.24.24v1.512ZM40.375 64c-1.168 0-2.112-.328-2.832-.984-.704-.672-1.056-1.536-1.056-2.592v-.456c0-.16.08-.24.24-.24h1.776c.16 0 .24.08.24.24v.192c0 .56.152 1.016.456 1.368.304.336.696.504 1.176.504s.872-.16 1.176-.48c.304-.32.456-.744.456-1.272 0-.432-.176-.824-.528-1.176-.352-.368-.912-.832-1.68-1.392l-.888-.672c-.848-.656-1.472-1.24-1.872-1.752-.4-.512-.6-1.136-.6-1.872 0-1.088.352-1.96 1.056-2.616.72-.656 1.648-.984 2.784-.984 1.168 0 2.112.344 2.832 1.032.72.688 1.08 1.584 1.08 2.688v.336c0 .16-.08.24-.24.24h-1.776c-.16 0-.24-.08-.24-.24v-.24c0-.544-.152-.984-.456-1.32-.304-.336-.704-.504-1.2-.504-.464 0-.84.144-1.128.432-.288.288-.432.688-.432 1.2 0 .48.16.888.48 1.224.336.336.912.784 1.728 1.344.832.56 1.456 1.016 1.872 1.368a4.75 4.75 0 0 1 1.08 1.248c.288.464.432 1.008.432 1.632 0 1.136-.368 2.048-1.104 2.736-.72.672-1.664 1.008-2.832 1.008ZM32.02 50.248c0-.16.08-.24.24-.24h1.8c.16 0 .24.08.24.24v13.344c0 .16-.08.24-.24.24h-1.848c-.128 0-.216-.064-.264-.192L28.3 55.36c-.016-.032-.04-.048-.072-.048-.032 0-.048.024-.048.072l.024 8.208c0 .16-.08.24-.24.24h-1.8c-.16 0-.24-.08-.24-.24V50.248c0-.16.08-.24.24-.24h1.824c.128 0 .216.064.264.192l3.672 8.256c.016.032.04.048.072.048.032 0 .048-.024.048-.072l-.024-8.184ZM19.685 64c-1.232 0-2.216-.352-2.952-1.056-.72-.72-1.08-1.704-1.08-2.952v-6.144c0-1.264.36-2.248 1.08-2.952.736-.72 1.72-1.08 2.952-1.08s2.208.36 2.928 1.08c.736.704 1.104 1.688 1.104 2.952v6.144c0 1.248-.368 2.232-1.104 2.952-.72.704-1.696 1.056-2.928 1.056Zm0-1.992c.544 0 .968-.168 1.272-.504.304-.336.456-.808.456-1.416v-6.336c0-.608-.152-1.08-.456-1.416-.304-.336-.728-.504-1.272-.504-.528 0-.952.168-1.272.504-.304.336-.456.808-.456 1.416v6.336c0 .608.152 1.08.456 1.416.32.336.744.504 1.272.504ZM9.793 64c-1.216 0-2.184-.352-2.904-1.056-.72-.704-1.08-1.672-1.08-2.904v-6.264c0-1.248.36-2.216 1.08-2.904.72-.704 1.688-1.056 2.904-1.056s2.184.352 2.904 1.056c.736.688 1.104 1.656 1.104 2.904v.24c0 .16-.08.24-.24.24l-1.824.072c-.16 0-.24-.08-.24-.24v-.48c0-.56-.152-.992-.456-1.296-.304-.32-.72-.48-1.248-.48-.512 0-.92.16-1.224.48-.304.304-.456.736-.456 1.296v6.6c0 .56.152 1 .456 1.32.304.32.712.48 1.224.48.528 0 .944-.152 1.248-.456.304-.32.456-.768.456-1.344v-.48c0-.16.08-.24.24-.24l1.824.096c.16 0 .24.08.24.24v.216c0 1.232-.368 2.2-1.104 2.904-.72.704-1.688 1.056-2.904 1.056Z" />
</svg>