<svg xmlns="http://www.w3.org/2000/svg" fill="currentColor" viewBox="0 0 384 101">
  <path
    d="M21.568 8.182V5.926h14.304v2.256l-3.984.432-.096 6.048v14.304l.096 6.096 3.984.432v2.256H21.568v-2.256l3.888-.432c.064-2.016.096-4.064.096-6.144v-6.24H12.544v6.48l.096 5.904 3.936.432v2.256H2.272v-2.256l3.984-.432c.064-1.984.096-4 .096-6.048V14.758c0-2.048-.032-4.096-.096-6.144l-3.984-.432V5.926h14.304v2.256l-3.936.432-.096 5.952v5.616h13.008v-5.856c0-1.92-.032-3.824-.096-5.712l-3.888-.432ZM44.719 25.51v-6.528c0-1.632-.032-3.248-.096-4.848l-3.504-.384v-2.16h21.6l.384 7.104h-3.312l-.816-4.656h-8.352l-.096 4.752v4.272h5.28l.576-3.312h2.4v9.024h-2.4l-.528-3.264h-5.328v5.088l.096 4.752h9.216l.816-4.656h3.312l-.336 7.056H41.12v-2.16l3.552-.384c.032-1.6.048-3.2.048-4.8V25.51Zm4.224-18 2.448-2.448c.832-.8 1.648-1.568 2.448-2.304.736-.736 1.344-1.232 1.824-1.488s.96-.384 1.44-.384c.64 0 1.168.208 1.584.624.416.384.624.848.624 1.392 0 .416-.176.88-.528 1.392-.32.48-.992.976-2.016 1.488l-3.36 1.632-3.36 1.632-1.104-1.536Zm23.69 16.32v-4.848c0-1.632-.016-3.248-.048-4.848l-3.552-.384v-2.16h13.151v2.16l-3.695.384a242.46 242.46 0 0 0-.049 4.848v11.616l.097 4.704h8.351l1.152-5.28h3.313l-.528 7.728H69.031v-2.16l3.553-.384c.032-1.6.047-3.216.047-4.848V23.83Zm27.444 1.68v-6.528c0-1.632-.032-3.248-.096-4.848l-3.504-.384v-2.16h21.6l.384 7.104h-3.312l-.816-4.656h-8.352l-.096 4.752v4.272h5.28l.576-3.312h2.4v9.024h-2.4l-.528-3.264h-5.328v5.088l.096 4.752h9.216l.816-4.656h3.312l-.336 7.056H96.477v-2.16l3.552-.384c.032-1.6.048-3.2.048-4.8V25.51Zm11.712-18-1.104 1.536a321.272 321.272 0 0 0-3.312-1.632c-1.12-.544-2.24-1.072-3.36-1.584-1.024-.512-1.712-1.024-2.064-1.536-.352-.512-.528-.976-.528-1.392 0-.544.208-1.008.624-1.392a2.251 2.251 0 0 1 1.584-.624c.48 0 .96.128 1.44.384.512.256 1.12.736 1.824 1.44.832.8 1.648 1.6 2.448 2.4a57.536 57.536 0 0 1 2.448 2.4Zm29.785 6.24v-2.16h10.896v2.16l-3.552.528v23.664h-2.592L130.534 18.07l-.096 16.944 4.704.576v2.16h-10.944v-2.16l3.6-.48V14.662l-.432-.576-3.024-.336v-2.16h8.208l13.632 16.848.048-14.16-4.656-.528Zm20.048 11.76v-6.528c0-1.632-.032-3.248-.096-4.848l-3.504-.384v-2.16h21.6l.384 7.104h-3.312l-.816-4.656h-8.352l-.096 4.752v4.272h5.28l.576-3.312h2.4v9.024h-2.4l-.528-3.264h-5.328v5.088l.096 4.752h9.216l.816-4.656h3.312l-.336 7.056h-22.512v-2.16l3.552-.384c.032-1.6.048-3.2.048-4.8V25.51Zm47.911-3.12h-2.16v6.72l.096 6.144h2.256c5.408 0 8.112-2.112 8.112-6.336 0-2.208-.672-3.84-2.016-4.896-1.344-1.088-3.44-1.632-6.288-1.632Zm.48-14.016h-2.544l-.096 6.096v5.568h1.968c2.464 0 4.272-.496 5.424-1.488 1.152-.992 1.728-2.512 1.728-4.56 0-1.984-.544-3.408-1.632-4.272-1.056-.896-2.672-1.344-4.848-1.344Zm-12.912-.192V5.926h14.688c3.68 0 6.4.72 8.16 2.16 1.76 1.44 2.64 3.264 2.64 5.472 0 1.664-.576 3.184-1.728 4.56-1.152 1.344-3.168 2.288-6.048 2.832 3.392.416 5.824 1.344 7.296 2.784 1.472 1.44 2.208 3.168 2.208 5.184 0 1.056-.24 2.112-.72 3.168-.448 1.024-1.2 1.968-2.256 2.832-1.024.864-2.432 1.552-4.224 2.064-1.76.512-3.968.768-6.624.768h-13.392v-2.256l4.032-.432c.064-2.016.096-4.048.096-6.096V14.758c0-2.048-.032-4.096-.096-6.144l-4.032-.432Zm42.8 9.12-3.792 10.224h7.488l-3.696-10.224ZM227.229 37.75v-2.16l3.648-.528 8.928-23.568h3.648l8.832 23.808 2.832.384v2.064h-12.48v-2.064l3.696-.528-1.872-5.184h-9.264l-1.872 5.04 3.648.576v2.16h-9.744Zm34.534-18.864h-3.264l.336-7.296h20.736v1.728l-14.544 21.984h10.944l.96-4.752h3.36l-.384 7.2h-21.792v-1.728l14.544-21.984h-9.84l-1.056 4.848Zm26.628 6.624v-6.528c0-1.632-.032-3.248-.096-4.848l-3.504-.384v-2.16h13.056v2.16l-3.6.384a235.312 235.312 0 0 0-.048 4.8v11.424c0 1.632.016 3.248.048 4.848l3.6.384v2.16h-13.056v-2.16l3.552-.384c.032-1.6.048-3.2.048-4.8V25.51Zm18.819-1.68v-4.848c0-1.632-.016-3.248-.048-4.848l-3.552-.384v-2.16h13.152v2.16l-3.696.384a242.46 242.46 0 0 0-.048 4.848v11.616l.096 4.704h8.352l1.152-5.28h3.312l-.528 7.728H303.61v-2.16l3.552-.384c.032-1.6.048-3.216.048-4.848V23.83Zm27.444 0v-4.848c0-1.632-.016-3.248-.048-4.848l-3.552-.384v-2.16h13.152v2.16l-3.696.384a242.46 242.46 0 0 0-.048 4.848v11.616l.096 4.704h8.352l1.152-5.28h3.312l-.528 7.728h-21.792v-2.16l3.552-.384c.032-1.6.048-3.216.048-4.848V23.83Zm27.445 1.68v-6.528c0-1.632-.032-3.248-.096-4.848l-3.504-.384v-2.16h21.6l.384 7.104h-3.312l-.816-4.656h-8.352l-.096 4.752v4.272h5.28l.576-3.312h2.4v9.024h-2.4l-.528-3.264h-5.328v5.088l.096 4.752h9.216l.816-4.656h3.312l-.336 7.056h-22.512v-2.16l3.552-.384c.032-1.6.048-3.2.048-4.8V25.51Z" />
  <path d="M8.9 55.75h366v1.5H8.9z" />
  <path
    d="M16.352 94.502c-1.824 0-3.276-.528-4.356-1.584s-1.62-2.508-1.62-4.356v-9.396c0-1.872.54-3.324 1.62-4.356 1.08-1.056 2.532-1.584 4.356-1.584 1.824 0 3.276.528 4.356 1.584 1.104 1.032 1.656 2.484 1.656 4.356v.36c0 .24-.12.36-.36.36l-2.736.108c-.24 0-.36-.12-.36-.36v-.72c0-.84-.228-1.488-.684-1.944-.456-.48-1.08-.72-1.872-.72-.768 0-1.38.24-1.836.72-.456.456-.684 1.104-.684 1.944v9.9c0 .84.228 1.5.684 1.98.456.48 1.068.72 1.836.72.792 0 1.416-.228 1.872-.684.456-.48.684-1.152.684-2.016v-.72c0-.24.12-.36.36-.36l2.736.144c.24 0 .36.12.36.36v.324c0 1.848-.552 3.3-1.656 4.356-1.08 1.056-2.532 1.584-4.356 1.584Zm14.838 0c-1.848 0-3.324-.528-4.428-1.584-1.08-1.08-1.62-2.556-1.62-4.428v-9.216c0-1.896.54-3.372 1.62-4.428 1.104-1.08 2.58-1.62 4.428-1.62 1.848 0 3.312.54 4.392 1.62 1.104 1.056 1.656 2.532 1.656 4.428v9.216c0 1.872-.552 3.348-1.656 4.428-1.08 1.056-2.544 1.584-4.392 1.584Zm0-2.988c.816 0 1.452-.252 1.908-.756.456-.504.684-1.212.684-2.124V79.13c0-.912-.228-1.62-.684-2.124-.456-.504-1.092-.756-1.908-.756-.792 0-1.428.252-1.908.756-.456.504-.684 1.212-.684 2.124v9.504c0 .912.228 1.62.684 2.124.48.504 1.116.756 1.908.756Zm18.503-17.64c0-.24.12-.36.36-.36h2.7c.24 0 .36.12.36.36V93.89c0 .24-.12.36-.36.36H49.98c-.191 0-.323-.096-.395-.288l-5.473-12.42c-.023-.048-.06-.072-.108-.072-.047 0-.072.036-.072.108l.036 12.312c0 .24-.12.36-.36.36h-2.7c-.24 0-.36-.12-.36-.36V73.874c0-.24.12-.36.36-.36h2.736c.193 0 .325.096.397.288l5.508 12.384c.023.048.06.072.108.072s.072-.036.072-.108l-.036-12.276Zm12.532 20.628c-1.752 0-3.168-.492-4.248-1.476-1.056-1.008-1.584-2.304-1.584-3.888v-.684c0-.24.12-.36.36-.36h2.664c.24 0 .36.12.36.36v.288c0 .84.228 1.524.684 2.052.456.504 1.044.756 1.764.756s1.308-.24 1.764-.72c.456-.48.684-1.116.684-1.908 0-.648-.264-1.236-.792-1.764-.528-.552-1.368-1.248-2.52-2.088l-1.332-1.008c-1.272-.984-2.208-1.86-2.808-2.628-.6-.768-.9-1.704-.9-2.808 0-1.632.528-2.94 1.584-3.924 1.08-.984 2.472-1.476 4.176-1.476 1.752 0 3.168.516 4.248 1.548s1.62 2.376 1.62 4.032v.504c0 .24-.12.36-.36.36h-2.664c-.24 0-.36-.12-.36-.36v-.36c0-.816-.228-1.476-.684-1.98-.456-.504-1.056-.756-1.8-.756-.696 0-1.26.216-1.692.648-.432.432-.648 1.032-.648 1.8 0 .72.24 1.332.72 1.836.504.504 1.368 1.176 2.592 2.016 1.248.84 2.184 1.524 2.808 2.052a7.124 7.124 0 0 1 1.62 1.872c.432.696.648 1.512.648 2.448 0 1.704-.552 3.072-1.656 4.104-1.08 1.008-2.496 1.512-4.248 1.512Zm19.997-18.36c0 .24-.12.36-.36.36h-7.128c-.096 0-.144.048-.144.144v5.544c0 .096.048.144.144.144h4.284c.24 0 .36.12.36.36v2.304c0 .24-.12.36-.36.36h-4.284c-.096 0-.144.048-.144.144v5.616c0 .096.048.144.144.144h7.128c.24 0 .36.12.36.36v2.268c0 .24-.12.36-.36.36H71.494c-.24 0-.36-.12-.36-.36V73.874c0-.24.12-.36.36-.36h10.368c.24 0 .36.12.36.36v2.268Zm3.265 18.108c-.24 0-.36-.12-.36-.36V73.874c0-.24.12-.36.36-.36h2.736c.24 0 .36.12.36.36V93.89c0 .24-.12.36-.36.36h-2.736Zm7.172 0c-.24 0-.36-.12-.36-.36V73.838c0-.24.12-.36.36-.36h2.735c.24 0 .36.12.36.36v17.28c0 .096.048.144.144.144h7.093c.24 0 .36.12.36.36v2.268c0 .24-.12.36-.36.36H92.659Zm25.752.252c-1.824 0-3.276-.528-4.356-1.584s-1.62-2.508-1.62-4.356v-9.396c0-1.872.54-3.324 1.62-4.356 1.08-1.056 2.532-1.584 4.356-1.584 1.824 0 3.276.528 4.356 1.584 1.104 1.032 1.656 2.484 1.656 4.356v.36c0 .24-.12.36-.36.36l-2.736.108c-.24 0-.36-.12-.36-.36v-.72c0-.84-.228-1.488-.684-1.944-.456-.48-1.08-.72-1.872-.72-.768 0-1.38.24-1.836.72-.456.456-.684 1.104-.684 1.944v9.9c0 .84.228 1.5.684 1.98.456.48 1.068.72 1.836.72.792 0 1.416-.228 1.872-.684.456-.48.684-1.152.684-2.016v-.72c0-.24.12-.36.36-.36l2.736.144c.24 0 .36.12.36.36v.324c0 1.848-.552 3.3-1.656 4.356-1.08 1.056-2.532 1.584-4.356 1.584Zm14.837 0c-1.848 0-3.324-.528-4.428-1.584-1.08-1.08-1.62-2.556-1.62-4.428v-9.216c0-1.896.54-3.372 1.62-4.428 1.104-1.08 2.58-1.62 4.428-1.62 1.848 0 3.312.54 4.392 1.62 1.104 1.056 1.656 2.532 1.656 4.428v9.216c0 1.872-.552 3.348-1.656 4.428-1.08 1.056-2.544 1.584-4.392 1.584Zm0-2.988c.816 0 1.452-.252 1.908-.756.456-.504.684-1.212.684-2.124V79.13c0-.912-.228-1.62-.684-2.124-.456-.504-1.092-.756-1.908-.756-.792 0-1.428.252-1.908.756-.456.504-.684 1.212-.684 2.124v9.504c0 .912.228 1.62.684 2.124.48.504 1.116.756 1.908.756Zm18.503-17.64c0-.24.12-.36.36-.36h2.7c.24 0 .36.12.36.36V93.89c0 .24-.12.36-.36.36h-2.772c-.192 0-.324-.096-.396-.288l-5.472-12.42c-.024-.048-.06-.072-.108-.072s-.072.036-.072.108l.036 12.312c0 .24-.12.36-.36.36h-2.7c-.24 0-.36-.12-.36-.36V73.874c0-.24.12-.36.36-.36h2.736c.192 0 .324.096.396.288l5.508 12.384c.024.048.06.072.108.072s.072-.036.072-.108l-.036-12.276Zm11.741 20.628c-1.752 0-3.168-.504-4.248-1.512s-1.62-2.364-1.62-4.068v-1.98c0-.24.12-.36.36-.36h2.736c.24 0 .36.12.36.36v2.016c0 .792.216 1.416.648 1.872.456.456 1.044.684 1.764.684.744 0 1.332-.228 1.764-.684.456-.456.684-1.08.684-1.872v-15.12c0-.24.12-.36.36-.36h2.772c.24 0 .36.12.36.36v15.084c0 1.704-.54 3.06-1.62 4.068-1.08 1.008-2.52 1.512-4.32 1.512Zm15.428 0c-1.8 0-3.252-.564-4.356-1.692-1.08-1.152-1.62-2.7-1.62-4.644V73.874c0-.24.12-.36.36-.36h2.736c.24 0 .36.12.36.36v14.544c0 .96.228 1.716.684 2.268.456.552 1.068.828 1.836.828.792 0 1.416-.276 1.872-.828.456-.552.684-1.308.684-2.268V73.874c0-.24.12-.36.36-.36h2.736c.24 0 .36.12.36.36v14.292c0 1.944-.552 3.492-1.656 4.644-1.08 1.128-2.532 1.692-4.356 1.692Zm14.936 0c-1.824 0-3.276-.504-4.356-1.512s-1.62-2.4-1.62-4.176v-9.9c0-1.776.54-3.168 1.62-4.176s2.532-1.512 4.356-1.512c1.824 0 3.276.516 4.356 1.548 1.104 1.008 1.656 2.4 1.656 4.176v.864c0 .24-.12.36-.36.36h-2.736c-.24 0-.36-.12-.36-.36v-.936c0-.84-.228-1.488-.684-1.944-.456-.456-1.08-.684-1.872-.684-.768 0-1.38.228-1.836.684-.456.456-.684 1.104-.684 1.944v9.972c0 .84.228 1.5.684 1.98.456.456 1.068.684 1.836.684.792 0 1.416-.228 1.872-.684.456-.48.684-1.14.684-1.98v-2.772c0-.096-.048-.144-.144-.144h-1.908c-.24 0-.36-.12-.36-.36V83.81c0-.24.12-.36.36-.36h5.148c.24 0 .36.12.36.36v5.004c0 1.752-.552 3.144-1.656 4.176-1.08 1.008-2.532 1.512-4.356 1.512Zm18.515-.252c-.216 0-.348-.108-.396-.324l-.612-3.096c0-.048-.024-.084-.072-.108-.024-.024-.06-.036-.108-.036h-5.004a.32.32 0 0 0-.144.036c-.024.024-.036.06-.036.108l-.648 3.096c-.024.216-.156.324-.396.324h-2.736c-.264 0-.36-.132-.288-.396l4.788-20.052c.048-.216.18-.324.396-.324h3.168c.24 0 .372.108.396.324l4.824 20.052.036.144c0 .168-.108.252-.324.252h-2.844Zm-5.724-6.444c-.024.024-.024.06 0 .108.024.024.06.036.108.036h3.888c.072 0 .108-.048.108-.144l-1.908-9.468c-.024-.072-.048-.108-.072-.108-.024 0-.048.036-.072.108l-2.052 9.468Zm12.012 6.444c-.24 0-.36-.12-.36-.36V73.838c0-.24.12-.36.36-.36h2.736c.24 0 .36.12.36.36v17.28c0 .096.048.144.144.144h7.092c.24 0 .36.12.36.36v2.268c0 .24-.12.36-.36.36h-10.332Zm31.224-18.108c0 .24-.12.36-.36.36h-7.128c-.096 0-.144.048-.144.144v5.544c0 .096.048.144.144.144h4.284c.24 0 .36.12.36.36v2.304c0 .24-.12.36-.36.36h-4.284c-.096 0-.144.048-.144.144v5.616c0 .096.048.144.144.144h7.128c.24 0 .36.12.36.36v2.268c0 .24-.12.36-.36.36h-10.368c-.24 0-.36-.12-.36-.36V73.874c0-.24.12-.36.36-.36h10.368c.24 0 .36.12.36.36v2.268Zm13.992-2.664c.24 0 .36.12.36.36v2.304c0 .24-.12.36-.36.36h-4.14c-.096 0-.144.048-.144.144V93.89c0 .24-.12.36-.36.36h-2.736c-.24 0-.36-.12-.36-.36V76.646c0-.096-.048-.144-.144-.144h-3.96c-.24 0-.36-.12-.36-.36v-2.304c0-.24.12-.36.36-.36h11.844Zm21.163 2.664c0 .24-.12.36-.36.36h-7.092c-.096 0-.144.048-.144.144v5.544c0 .096.048.144.144.144h4.284c.24 0 .36.12.36.36v2.304c0 .24-.12.36-.36.36h-4.284c-.096 0-.144.048-.144.144v8.388c0 .24-.12.36-.36.36h-2.736c-.24 0-.36-.12-.36-.36V73.838c0-.24.12-.36.36-.36h10.332c.24 0 .36.12.36.36v2.304Zm11.848 18.108c-.216 0-.348-.108-.396-.324l-.612-3.096c0-.048-.024-.084-.072-.108-.024-.024-.06-.036-.108-.036h-5.004a.32.32 0 0 0-.144.036c-.024.024-.036.06-.036.108l-.648 3.096c-.024.216-.156.324-.396.324h-2.736c-.264 0-.36-.132-.288-.396l4.788-20.052c.048-.216.18-.324.396-.324h3.168c.24 0 .372.108.396.324l4.824 20.052.036.144c0 .168-.108.252-.324.252h-2.844Zm-5.724-6.444c-.024.024-.024.06 0 .108.024.024.06.036.108.036h3.888c.072 0 .108-.048.108-.144l-1.908-9.468c-.024-.072-.048-.108-.072-.108-.024 0-.048.036-.072.108l-2.052 9.468Zm21.372-14.076c.12-.168.264-.252.432-.252h2.736c.24 0 .36.12.36.36V93.89c0 .24-.12.36-.36.36h-2.736c-.24 0-.36-.12-.36-.36V80.534c0-.072-.024-.108-.072-.108-.048-.024-.084 0-.108.072l-2.628 4.068c-.12.168-.228.252-.324.252s-.204-.084-.324-.252l-2.7-4.212c-.024-.072-.06-.096-.108-.072-.048 0-.072.036-.072.108v13.5c0 .24-.12.36-.36.36h-2.736c-.24 0-.36-.12-.36-.36V73.838c0-.24.12-.36.36-.36h2.736c.168 0 .312.084.432.252l3.024 5.22c.024.024.06.036.108.036s.084-.012.108-.036l2.952-5.22Zm7.585 20.52c-.24 0-.36-.12-.36-.36V73.874c0-.24.12-.36.36-.36h2.736c.24 0 .36.12.36.36V93.89c0 .24-.12.36-.36.36h-2.736Zm7.172 0c-.24 0-.36-.12-.36-.36V73.838c0-.24.12-.36.36-.36h2.736c.24 0 .36.12.36.36v17.28c0 .096.048.144.144.144h7.092c.24 0 .36.12.36.36v2.268c0 .24-.12.36-.36.36h-10.332Zm13.289 0c-.24 0-.36-.12-.36-.36V73.874c0-.24.12-.36.36-.36h2.736c.24 0 .36.12.36.36V93.89c0 .24-.12.36-.36.36h-2.736Zm16.388 0c-.216 0-.348-.108-.396-.324l-.612-3.096c0-.048-.024-.084-.072-.108-.024-.024-.06-.036-.108-.036h-5.004a.32.32 0 0 0-.144.036c-.024.024-.036.06-.036.108l-.648 3.096c-.024.216-.156.324-.396.324h-2.736c-.264 0-.36-.132-.288-.396l4.788-20.052c.048-.216.18-.324.396-.324h3.168c.24 0 .372.108.396.324l4.824 20.052.036.144c0 .168-.108.252-.324.252h-2.844Zm-5.724-6.444c-.024.024-.024.06 0 .108.024.024.06.036.108.036h3.888c.072 0 .108-.048.108-.144l-1.908-9.468c-.024-.072-.048-.108-.072-.108-.024 0-.048.036-.072.108l-2.052 9.468Zm12.012 6.444c-.24 0-.36-.12-.36-.36V73.838c0-.24.12-.36.36-.36h2.736c.24 0 .36.12.36.36v17.28c0 .096.048.144.144.144h7.092c.24 0 .36.12.36.36v2.268c0 .24-.12.36-.36.36h-10.332Z" />
</svg>