<svg xmlns="http://www.w3.org/2000/svg" fill="none" viewBox="0 0 94 94">
  <path fill="#B85956" fill-rule="evenodd"
    d="M47 92c24.853 0 45-20.147 45-45S71.853 2 47 2 2 22.147 2 47s20.147 45 45 45Zm0 2c25.957 0 47-21.043 47-47S72.957 0 47 0 0 21.043 0 47s21.043 47 47 47Z"
    clip-rule="evenodd" />
  <path fill="#B85956" fill-rule="evenodd"
    d="M47 89.392c23.413 0 42.392-18.98 42.392-42.392a42.282 42.282 0 0 0-2.937-15.537c-.084.1-.17.2-.26.302-1.605 1.826-4.13 3.662-7.574 5.508a35.804 35.804 0 0 1-5.432 2.461 76.964 76.964 0 0 1-5.839 1.843 50.886 50.886 0 0 1 2.3-.268 39.957 39.957 0 0 1 2.176-.137c4.741-.16 8.206.503 10.394 1.99 2.187 1.444 3.318 3.282 3.394 5.516.054 1.6-.4 3.324-1.364 5.17-.966 1.805-2.36 3.581-4.181 5.33-1.782 1.705-3.953 3.234-6.516 4.586a25.871 25.871 0 0 1-5.507 2.148c-1.866.485-3.586.817-5.162.997-1.575.222-2.875.35-3.9.385-2.562.087-4.641-.053-6.236-.421-1.551-.37-2.764-.835-3.639-1.395a48.517 48.517 0 0 1-2.03-1.26c-.529-.446-.795-.733-.8-.859 0-.042.041-.065.127-.068.17-.005.364.03.58.107.258.034.453.09.583.17 1.512.455 2.803.686 3.872.692l3.396-.115c1.41-.048 3.113-.232 5.112-.553a46.148 46.148 0 0 0 6.236-1.476c2.201-.665 4.224-1.556 6.067-2.673 2.473-1.476 4.34-3.184 5.6-5.125 1.302-1.942 1.924-3.777 1.866-5.504-.063-1.854-.95-3.406-2.66-4.655-1.71-1.25-4.358-1.814-7.946-1.693l-1.09.037c-.384.013-.789.048-1.214.105-1.705.184-3.53.562-5.478 1.134-1.906.529-3.637 1.199-5.192 2.01-1.513.769-2.574 1.627-3.184 2.576-1.016 1.553-1.846 2.93-2.49 4.133a51.604 51.604 0 0 0-1.684 3.284 83.815 83.815 0 0 1-1.62 3.282c-.194.597-.547.904-1.06.922-.256.008-.39-.156-.402-.493-.007-.21.009-.38.047-.508.224-.977.776-2.346 1.657-4.105.924-1.76 2.054-3.74 3.391-5.936a192.696 192.696 0 0 1 4.203-6.595 276.52 276.52 0 0 1 4.283-6.093c1.348-1.86 2.495-3.353 3.44-4.482.944-1.17 1.544-1.76 1.8-1.769.257-.009.475.11.654.358.18.247.251.476.216.688l-.799 1.04a459.12 459.12 0 0 0-2.026 2.662 124.428 124.428 0 0 1-2.516 3.375 1250.9 1250.9 0 0 0-2.33 3.18 431.36 431.36 0 0 0-1.535 2.013 181.98 181.98 0 0 0 11.327-2.661 47.247 47.247 0 0 0 10.82-4.353c2.1-1.168 3.725-2.404 4.878-3.708 1.195-1.348 1.774-2.549 1.738-3.602-.037-1.095-.772-1.977-2.206-2.646-1.435-.71-3.733-1.012-6.894-.905-1.28.043-2.856.244-4.726.603a86 86 0 0 0-6.045 1.406 73.172 73.172 0 0 0-6.345 2.05c-.777.28-1.53.567-2.257.863-.37.565-.743 1.142-1.12 1.73a326.617 326.617 0 0 0-5.707 9.103 378.422 378.422 0 0 0-5.317 9.278 214.237 214.237 0 0 0-4.509 8.556c-1.318 2.657-2.35 4.924-3.097 6.803-.197.47-.381.708-.551.713-.214.008-.328-.22-.344-.683-.014-.42.094-1.014.324-1.78.385-1.235 1.075-2.9 2.07-4.999a286.875 286.875 0 0 1 3.602-7.009 474.722 474.722 0 0 1 4.465-7.986 676.634 676.634 0 0 1 4.722-7.931 788.834 788.834 0 0 1 2.865-4.658c-.283.134-.562.27-.837.407-1.681.858-3.02 1.726-4.017 2.604-.708.572-.926 1.064-.656 1.477.09.123.137.248.141.375.003.084-.06.128-.188.133a1.628 1.628 0 0 1-.39-.177 4.08 4.08 0 0 1-1.594-1.59c-.364-.663-.556-1.269-.574-1.816a2.33 2.33 0 0 1 .045-.571c.08-.172.138-.321.177-.45.771-1.206 2.037-2.346 3.797-3.418 1.76-1.072 3.758-2.046 5.994-2.923a67.894 67.894 0 0 1 2.642-1.004l.19-.272c.898-1.21 1.454-1.818 1.667-1.826l.575-.02c.383-.012.58.108.588.36.006.19-.118.482-.373.875a69.45 69.45 0 0 1 1.686-.5c2.37-.713 4.575-1.252 6.616-1.616 2.038-.407 3.699-.632 4.98-.675 2.37-.08 4.453.02 6.25.3C72.844 11.087 60.678 4.609 47 4.609 23.587 4.608 4.608 23.588 4.608 47c0 1.16.047 2.31.138 3.446 2.043-.911 4.505-1.665 7.386-2.262a58.17 58.17 0 0 1 5.407-.942 49.483 49.483 0 0 1 5.554-.377 302.303 302.303 0 0 1 4.124-6.711 911.031 911.031 0 0 1 3.585-5.619c1.095-1.68 1.989-2.994 2.682-3.944.735-.952 1.188-1.43 1.359-1.437l.575-.02c.383-.012.58.108.588.36.008.253-.212.681-.66 1.286a260.566 260.566 0 0 0-5.057 7.5 290.31 290.31 0 0 0-5.468 8.59c2.007.058 3.996.243 5.97.555a43.87 43.87 0 0 1 2.707.604 19.9 19.9 0 0 1 3.042 1.034c1.037.386 1.93.904 2.676 1.552.748.649 1.2 1.434 1.36 2.355.052.293.015.442-.113.446-.087-.039-.175-.141-.266-.306-.188-.5-.777-.88-1.767-1.141a16.485 16.485 0 0 0-3.025-.53c-1.028-.133-1.799-.213-2.311-.237a43.714 43.714 0 0 0-4.161-.049c-2.343.08-4.704.286-7.081.619a328.25 328.25 0 0 0-4.955 8.634 181.498 181.498 0 0 0-4.151 7.786c-.382.791-.737 1.545-1.065 2.261 7.596 11.416 20.579 18.94 35.32 18.94Zm-36.18-20.29c.227-.51.478-1.053.75-1.628a191.364 191.364 0 0 1 3.852-7.207 684.694 684.694 0 0 1 4.645-8.308l-2.799.473a48.53 48.53 0 0 0-2.605.531c-3.751.763-6.803 1.68-9.157 2.754a42.131 42.131 0 0 0 5.314 13.385Z"
    clip-rule="evenodd" />
</svg>